<svg width="514" height="465" viewBox="0 0 514 465" fill="none" xmlns="http://www.w3.org/2000/svg">
<circle cx="265.494" cy="232.5" r="231.647" stroke="white" stroke-width="0.772158" stroke-linecap="round" stroke-dasharray="7.21 7.21"/>
<circle cx="265.494" cy="232.5" r="119.798" stroke="white" stroke-width="0.545362" stroke-linecap="round" stroke-dasharray="4 4"/>
<circle cx="265.622" cy="112.429" r="34.7471" fill="#8FFF00"/>
<circle cx="271.542" cy="228.253" r="13.8988" fill="#8FFF00"/>
<circle cx="462.78" cy="367.756" r="51.2198" fill="#8FFF00"/>
<circle cx="33.4602" cy="214.354" r="33.4602" fill="#8FFF00"/>
<circle cx="216.204" cy="339.444" r="18.2744" fill="#8FFF00"/>
<path d="M466.953 357.803C465.391 358.917 463.48 359.572 461.416 359.572C456.142 359.572 451.867 355.296 451.867 350.023C451.867 344.749 456.142 340.474 461.416 340.474C464.835 340.474 467.834 342.27 469.52 344.97M446.41 389.821H453.532C454.461 389.821 455.383 389.931 456.284 390.152L463.808 391.981C465.441 392.378 467.142 392.417 468.792 392.097L477.112 390.478C479.31 390.05 481.331 388.998 482.916 387.456L488.802 381.73C490.483 380.098 490.483 377.449 488.802 375.813C487.289 374.341 484.892 374.175 483.18 375.424L476.32 380.429C475.337 381.147 474.142 381.534 472.912 381.534H466.287L470.504 381.534C472.881 381.534 474.806 379.661 474.806 377.349V376.512C474.806 374.592 473.463 372.918 471.549 372.454L465.041 370.872C463.982 370.615 462.897 370.485 461.807 370.485C459.174 370.485 454.409 372.664 454.409 372.664L446.41 376.009M484.607 352.751C484.607 358.025 480.331 362.3 475.057 362.3C469.784 362.3 465.508 358.025 465.508 352.751C465.508 347.477 469.784 343.202 475.057 343.202C480.331 343.202 484.607 347.477 484.607 352.751ZM435.497 374.85L435.497 390.674C435.497 392.202 435.497 392.966 435.795 393.55C436.056 394.063 436.474 394.481 436.987 394.742C437.571 395.039 438.335 395.039 439.863 395.039H442.045C443.573 395.039 444.337 395.039 444.921 394.742C445.434 394.481 445.851 394.063 446.113 393.55C446.41 392.966 446.41 392.202 446.41 390.674V374.85C446.41 373.322 446.41 372.558 446.113 371.975C445.851 371.461 445.434 371.044 444.921 370.782C444.337 370.485 443.573 370.485 442.045 370.485L439.863 370.485C438.335 370.485 437.571 370.485 436.987 370.782C436.474 371.044 436.056 371.461 435.795 371.975C435.497 372.558 435.497 373.322 435.497 374.85Z" stroke="black" stroke-width="2.57386" stroke-linecap="round" stroke-linejoin="round"/>
<path d="M217.157 332.609C217.157 333.667 214.812 334.525 211.919 334.525C209.026 334.525 206.681 333.667 206.681 332.609M217.157 332.609C217.157 331.551 214.812 330.693 211.919 330.693C209.026 330.693 206.681 331.551 206.681 332.609M217.157 332.609V336.879C215.993 337.231 215.252 337.762 215.252 338.357M206.681 332.609V344.106C206.681 345.164 209.026 346.022 211.919 346.022C213.185 346.022 214.346 345.857 215.252 345.584V338.357M206.681 336.441C206.681 337.499 209.026 338.357 211.919 338.357C213.185 338.357 214.346 338.193 215.252 337.919M206.681 340.273C206.681 341.332 209.026 342.189 211.919 342.189C213.185 342.189 214.346 342.025 215.252 341.751M225.728 338.357C225.728 339.415 223.383 340.273 220.49 340.273C217.597 340.273 215.252 339.415 215.252 338.357M225.728 338.357C225.728 337.299 223.383 336.441 220.49 336.441C217.597 336.441 215.252 337.299 215.252 338.357M225.728 338.357V346.022C225.728 347.08 223.383 347.938 220.49 347.938C217.597 347.938 215.252 347.08 215.252 346.022V338.357M225.728 342.189C225.728 343.248 223.383 344.106 220.49 344.106C217.597 344.106 215.252 343.248 215.252 342.189" stroke="black" stroke-width="0.857096" stroke-linecap="round" stroke-linejoin="round"/>
<path d="M268.557 225.267L269.509 224.315M269.509 224.315L268.557 223.363M269.509 224.315H268.557C267.505 224.315 266.652 225.168 266.652 226.22M274.271 230.981L273.318 231.934M273.318 231.934L274.271 232.886M273.318 231.934H274.271C275.323 231.934 276.175 231.081 276.175 230.029M270.551 225.506C270.868 224.273 271.987 223.363 273.318 223.363C274.896 223.363 276.175 224.642 276.175 226.22C276.175 227.551 275.265 228.67 274.033 228.987M272.366 230.029C272.366 231.607 271.087 232.886 269.509 232.886C267.931 232.886 266.652 231.607 266.652 230.029C266.652 228.451 267.931 227.172 269.509 227.172C271.087 227.172 272.366 228.451 272.366 230.029Z" stroke="black" stroke-width="0.952329" stroke-linecap="round" stroke-linejoin="round"/>
<path d="M42.7904 227.481V219.373M38.7366 223.427H46.8443M46.8443 212.617H19.8187M46.8443 215.32V210.185C46.8443 208.671 46.8443 207.914 46.5497 207.336C46.2906 206.828 45.8772 206.414 45.3686 206.155C44.7905 205.861 44.0338 205.861 42.5202 205.861H24.1428C22.6292 205.861 21.8725 205.861 21.2943 206.155C20.7858 206.414 20.3724 206.828 20.1133 207.336C19.8187 207.914 19.8187 208.671 19.8187 210.185V220.454C19.8187 221.968 19.8187 222.725 20.1133 223.303C20.3724 223.811 20.7858 224.225 21.2943 224.484C21.8725 224.778 22.6292 224.778 24.1428 224.778H33.3315" stroke="black" stroke-width="2.18778" stroke-linecap="round" stroke-linejoin="round"/>
<path d="M260.745 107.809H260.761M270.243 117.307H270.258M271.825 106.227L259.162 118.89M274.835 101.475C275.161 102.264 275.786 102.89 276.574 103.218L279.337 104.362C280.125 104.688 280.752 105.315 281.078 106.103C281.405 106.892 281.405 107.777 281.078 108.566L279.935 111.326C279.608 112.115 279.607 113.002 279.936 113.79L281.077 116.55C281.239 116.941 281.322 117.359 281.322 117.782C281.322 118.205 281.239 118.623 281.078 119.014C280.916 119.404 280.679 119.759 280.38 120.058C280.081 120.357 279.726 120.594 279.335 120.755L276.575 121.899C275.786 122.225 275.16 122.851 274.833 123.638L273.688 126.401C273.362 127.189 272.736 127.816 271.947 128.142C271.159 128.469 270.273 128.469 269.485 128.142L266.724 126.999C265.936 126.673 265.05 126.674 264.262 127.001L261.5 128.143C260.712 128.469 259.827 128.469 259.039 128.143C258.251 127.816 257.625 127.191 257.299 126.403L256.154 123.64C255.828 122.851 255.202 122.225 254.415 121.898L251.652 120.753C250.864 120.427 250.238 119.801 249.911 119.013C249.585 118.225 249.584 117.34 249.91 116.551L251.053 113.791C251.379 113.002 251.379 112.117 251.052 111.329L249.91 108.564C249.748 108.174 249.665 107.755 249.664 107.332C249.664 106.91 249.748 106.491 249.909 106.101C250.071 105.71 250.308 105.355 250.607 105.056C250.906 104.758 251.261 104.521 251.652 104.359L254.412 103.215C255.2 102.89 255.826 102.265 256.153 101.478L257.298 98.7153C257.624 97.9269 258.251 97.3005 259.039 96.9739C259.827 96.6474 260.713 96.6474 261.501 96.9739L264.262 98.1174C265.05 98.4432 265.936 98.4425 266.724 98.1156L269.487 96.9757C270.276 96.6493 271.161 96.6494 271.949 96.9759C272.738 97.3024 273.364 97.9286 273.691 98.7168L274.835 101.48L274.835 101.475ZM261.536 107.809C261.536 108.247 261.182 108.601 260.745 108.601C260.308 108.601 259.953 108.247 259.953 107.809C259.953 107.372 260.308 107.018 260.745 107.018C261.182 107.018 261.536 107.372 261.536 107.809ZM271.034 117.307C271.034 117.744 270.68 118.098 270.243 118.098C269.805 118.098 269.451 117.744 269.451 117.307C269.451 116.87 269.805 116.516 270.243 116.516C270.68 116.516 271.034 116.87 271.034 117.307Z" stroke="black" stroke-width="2.1363" stroke-linecap="round" stroke-linejoin="round"/>
</svg>
