<svg width="262" height="17" viewBox="0 0 262 17" fill="none" xmlns="http://www.w3.org/2000/svg">
<path d="M6.836 8.66806C7.508 8.86006 8.18 8.57206 8.564 8.18806C8.948 7.80406 9.236 7.80405 9.524 7.99605C10.004 8.38005 10.292 8.18805 10.676 8.09205C11.06 7.99605 11.06 7.80405 11.252 7.61205C11.348 7.51605 11.636 7.51606 11.636 7.70806C11.636 7.99606 11.636 8.18806 11.924 8.18806C12.5 8.18806 12.98 8.09205 13.556 8.09205C14.324 8.09205 14.9 7.80406 15.572 7.70806C16.244 7.61206 16.916 7.80405 17.588 7.80405C17.78 7.90005 17.972 7.80406 18.164 7.70806C18.74 7.42006 19.316 7.61206 19.796 7.70806C20.372 7.80406 20.852 7.70806 21.332 7.61205C21.812 7.51605 22.388 7.70805 22.868 7.80405C23.06 7.80405 23.348 7.61205 23.636 7.51605C24.02 7.32405 24.404 7.32406 24.884 7.42006C25.556 7.61206 26.42 7.61206 27.092 7.42006C27.764 7.22806 28.532 7.99606 29.012 7.13206C29.108 7.03606 29.3 7.03606 29.3 7.13206C29.972 7.61206 30.644 7.42006 31.412 7.42006C32.084 7.32406 32.852 7.32406 33.524 7.22806C34.196 7.13206 34.964 6.84406 35.636 7.13206C36.308 6.84406 37.076 7.13206 37.748 7.13206C38.036 7.13206 38.324 7.13205 38.708 7.03605C38.9 7.03605 39.188 6.84406 39.38 6.94006C40.916 7.03606 42.356 6.65205 43.796 6.84405C44.084 6.84405 44.468 6.94005 44.66 6.84405C45.14 6.46005 45.716 6.84406 46.196 6.65206C46.676 6.46006 47.252 6.55605 47.732 6.55605C48.212 6.55605 48.788 6.46006 49.268 6.65206C49.364 6.74806 49.46 6.74806 49.556 6.65206C50.228 6.26806 50.996 6.36406 51.668 6.17206C52.052 6.07606 52.34 6.07606 52.628 6.17206C53.108 6.46006 53.588 6.07606 54.068 6.17206C57.14 6.36406 60.116 6.17206 62.708 5.98006H63.284C64.532 5.98006 65.78 5.98005 67.028 5.88405C67.7 5.88405 68.276 5.88406 68.948 5.78806C69.428 5.59606 70.004 5.59606 70.484 5.78806C71.156 5.98006 71.924 5.50006 72.596 5.78806C72.596 5.88406 72.788 5.78806 72.884 5.69206C73.076 5.50006 73.268 5.50006 73.556 5.50006C74.324 5.50006 75.188 5.98006 75.956 5.21206C76.052 5.11606 76.244 5.21206 76.34 5.21206C77.204 5.59606 78.164 5.69206 79.028 5.50006C79.7 5.30806 80.276 5.30805 80.948 5.30805C81.716 5.30805 82.484 5.21205 83.252 5.30805C84.02 5.40405 84.788 5.11605 85.556 5.30805C85.748 5.30805 86.132 5.21205 86.324 5.11605C86.612 4.92405 86.804 4.92406 87.092 5.02006C87.764 5.21206 88.532 5.21205 89.204 5.11605C89.78 5.02005 90.356 4.92406 90.932 4.92406C91.22 4.92406 91.508 4.73205 91.796 4.82805C92.372 5.11605 93.044 4.92406 93.62 4.92406C94.292 5.02006 95.06 5.11606 95.636 4.92406C96.404 4.82806 97.076 4.92406 97.844 5.02006C98.708 5.02006 99.668 4.54005 100.532 4.82805C102.356 4.63605 104.084 4.63605 105.908 4.63605C106.58 4.63605 107.252 4.73206 107.924 4.54006C108.5 4.44406 109.172 4.44406 109.748 4.44406C110.708 4.44406 111.668 4.44405 112.532 4.34805C113.108 4.34805 113.588 4.34806 114.068 3.96406C114.068 3.96406 114.26 3.86806 114.26 3.96406C114.644 4.54006 115.124 4.15605 115.604 4.15605C116.372 4.34805 117.236 4.34805 118.004 4.34805C119.156 4.34805 120.212 3.96406 121.268 4.25206C121.364 4.25206 121.46 4.15605 121.556 4.15605C122.036 4.15605 122.516 4.06006 122.996 4.06006C124.34 4.06006 125.78 4.15606 127.124 3.77206C127.508 3.67606 127.892 3.77205 128.18 3.86805C128.852 4.06005 129.428 4.06005 130.1 3.86805C130.292 3.86805 130.484 3.86806 130.676 3.96406C131.156 4.06006 131.732 3.86806 132.212 3.96406C132.884 4.06006 133.46 3.48405 134.132 3.86805H136.628H136.916C137.108 3.86805 137.396 3.77205 137.684 3.67605C137.876 3.58005 138.164 3.58005 138.356 3.67605C138.74 3.86805 139.22 3.77206 139.604 3.77206C139.892 3.77206 140.18 3.58005 140.372 3.67605C140.948 3.77205 141.524 3.77205 142.1 3.67605C142.676 3.58005 143.252 3.77206 143.924 3.58006C144.5 3.48406 145.172 3.58006 145.748 3.48406C146.42 3.96406 147.092 3.38806 147.764 3.48406C147.86 3.48406 148.052 3.48406 148.148 3.58006C148.532 3.77206 148.916 3.77206 149.204 3.58006C149.492 3.38806 149.876 3.38806 150.164 3.48406C150.74 3.48406 151.412 3.48405 151.988 3.38805C152.948 3.38805 153.812 3.58006 154.676 3.29206C155.252 3.58006 155.924 3.38805 156.5 3.38805C156.884 3.48405 157.172 3.29206 157.46 3.00406C157.556 2.90806 157.748 2.81206 157.844 3.00406C157.94 3.29206 158.132 3.38805 158.42 3.38805C158.9 3.38805 159.284 3.48406 159.668 3.29206C159.86 3.19606 160.052 3.19605 160.34 3.19605C161.012 3.48405 161.684 3.38806 162.452 3.29206C163.028 3.29206 163.7 3.58005 164.276 3.19605C164.372 3.10005 164.564 3.19606 164.66 3.29206C165.236 3.38806 166.868 3.29205 167.444 3.19605L168.404 3.10005C169.172 3.19605 169.94 3.10005 170.708 3.10005C172.244 3.19605 173.684 3.00406 175.22 3.29206H175.796C176.084 3.19606 176.372 3.10005 176.564 3.19605C177.428 3.29205 178.292 3.19605 179.06 3.19605C179.444 3.10005 179.828 3.19606 180.116 3.29206C180.404 3.38806 180.692 3.38806 180.884 3.29206C182.612 3.00406 184.34 3.10005 186.068 3.19605C186.548 3.48405 187.124 3.10006 187.7 3.29206C188.276 2.81206 188.852 3.19605 189.524 3.19605C190.004 3.19605 190.484 3.38805 190.964 3.10005C191.06 3.00405 191.348 3.00405 191.444 3.10005C192.212 3.48405 193.076 3.38806 193.844 3.29206C194.9 3.00406 195.86 3.48406 196.916 3.29206C197.492 3.48406 198.164 3.38805 198.74 3.38805C200.852 3.38805 202.964 3.48405 204.98 3.38805C205.652 3.38805 206.228 3.67605 206.9 3.67605C207.476 3.67605 208.052 3.38805 208.724 3.67605C209.396 3.86805 209.972 3.48406 210.644 3.58006C211.22 3.67606 211.7 3.67605 212.18 3.67605C212.564 3.77205 212.948 3.77205 213.332 3.67605C214.1 3.48405 214.964 3.96406 215.732 3.58006C215.828 3.48406 215.924 3.58006 216.02 3.58006C216.596 3.86806 217.172 3.77206 217.748 3.77206C218.516 3.77206 219.38 3.58006 220.244 3.77206C221.012 3.96406 221.78 3.86806 222.644 3.77206C222.932 3.77206 223.22 3.77205 223.412 3.86805C224.372 4.25205 225.428 3.96406 226.484 3.96406C226.868 3.96406 227.156 3.67605 227.54 3.86805C227.924 4.15605 228.404 3.77206 228.692 4.06006C229.652 4.06006 230.612 4.63605 231.668 4.15605C231.668 4.06005 231.86 4.15605 231.956 4.15605C232.724 4.54005 233.588 4.34806 234.356 4.44406C235.124 4.44406 235.796 4.34806 236.564 4.54006C236.948 4.63606 237.524 4.73206 238.004 4.25206H238.1C238.388 4.82806 239.06 4.44405 239.444 4.63605C239.636 4.73205 239.924 4.92405 240.212 4.82805C240.692 4.73205 241.172 4.92405 241.748 4.82805C242.324 4.82805 242.804 4.92406 243.38 4.92406C244.34 5.02006 245.3 5.02006 246.356 5.02006C246.74 5.02006 247.124 4.92405 247.412 5.11605C248.084 5.40405 248.756 5.30805 249.428 5.30805C249.716 5.40405 250.004 5.30805 250.292 5.40405C250.964 5.59605 251.54 5.59606 252.212 5.69206L256.244 5.98006C257.012 6.07606 257.78 6.26805 258.452 6.84405C258.644 7.03605 258.836 7.13206 259.028 7.13206C259.7 7.22806 260.372 7.13205 260.948 6.84405C261.14 6.74805 261.332 6.65205 261.332 6.36405C261.62 5.69205 261.428 5.30806 260.756 5.02006L260.084 4.73206L257.492 4.15605C256.436 3.96405 255.38 3.96406 254.42 3.77206C253.652 3.58006 252.884 3.48406 252.116 3.48406L249.812 3.19605C248.948 3.19605 248.18 3.19606 247.316 3.00406C246.932 3.00406 246.548 3.00405 246.164 3.19605C245.78 3.38805 245.588 3.29206 245.3 3.00406C245.012 2.71606 244.436 2.90806 243.956 2.81206C243.284 2.62006 242.708 2.52406 242.036 2.71605C241.94 2.71605 241.748 2.81206 241.652 2.71605C240.884 2.42806 239.924 2.62005 239.06 2.42805C238.004 2.23605 237.044 2.23606 235.988 2.23606C234.932 2.23606 233.78 1.94805 232.724 2.23606C232.628 2.23606 232.436 2.23605 232.244 2.14005C231.572 1.85205 230.708 1.94806 229.94 1.85206C229.172 1.75606 228.308 1.85206 227.54 1.75606C226.676 1.56406 225.908 1.66005 225.14 1.66005H224.276C223.7 1.66005 223.028 1.75606 222.452 1.37206L222.356 1.46805C221.492 1.66005 220.724 1.46806 219.86 1.56406C219.284 1.56406 218.708 1.66006 218.132 1.37206C217.94 1.27606 217.748 1.27606 217.556 1.27606C216.212 1.37206 214.868 1.18006 213.524 1.08406C213.236 0.988059 213.044 1.08405 212.756 1.18005C212.564 1.18005 212.564 1.46806 212.276 1.37206C211.7 1.18006 211.124 1.08406 210.452 1.08406C209.78 1.08406 209.108 0.988054 208.436 0.988054H204.596C204.212 0.988054 203.828 0.79605 203.54 0.89205C203.06 1.08405 202.676 0.700056 202.292 0.796057C201.812 0.796057 201.428 0.89205 200.948 0.89205C200.756 0.98805 200.66 0.98805 200.468 0.89205C199.508 0.60405 198.548 0.700052 197.492 0.700052C193.172 0.604052 188.756 0.604059 184.436 0.604059C183.956 0.604059 183.476 0.508055 182.996 0.508055C182.612 0.412055 182.132 0.604059 181.652 0.604059C181.268 0.700059 180.884 0.508059 180.404 0.604059C179.828 0.700059 179.252 0.700059 178.676 0.604059C178.196 0.508059 177.716 0.700055 177.14 0.508055C176.66 0.316055 176.18 0.508059 175.7 0.604059H175.508C174.74 0.220059 173.972 0.700059 173.204 0.604059C172.724 0.604059 172.244 0.508055 171.86 0.508055C171.38 0.508055 170.9 0.700059 170.42 0.604059C169.076 0.604059 167.732 0.796052 166.388 0.700052C166.004 0.988052 165.428 0.604056 165.044 0.796057C164.564 0.988056 164.18 0.700052 163.7 0.700052H162.932H158.228C157.364 0.700052 156.404 0.700056 155.54 0.796057C154.964 0.892056 154.388 0.89205 153.908 0.89205C153.236 0.98805 152.564 0.89205 151.892 0.89205C151.22 0.89205 150.548 0.892054 149.876 0.988054C149.204 1.08405 148.532 0.892056 147.86 1.27606C147.764 1.27606 147.572 1.18005 147.38 1.18005C147.188 1.08405 146.9 0.988059 146.612 1.08406C145.94 1.08406 145.172 0.988051 144.5 1.18005C143.828 1.46805 143.252 0.796059 142.676 1.08406C142.1 1.37206 141.524 1.46806 140.948 1.37206C140.276 1.37206 139.7 1.18006 139.028 1.27606C138.452 1.46806 137.876 1.18006 137.204 1.27606C136.724 1.37206 136.34 1.27606 135.86 1.27606C135.476 1.27606 135.188 1.37205 134.996 1.66005C134.9 1.85205 134.708 1.75605 134.612 1.66005C134.42 1.56405 134.324 1.37206 134.132 1.37206C133.556 1.46806 132.98 1.75605 132.404 1.46805C131.828 1.66005 131.156 1.46805 130.58 1.46805C130.1 1.46805 129.62 1.66005 129.044 1.66005C128.948 1.66005 128.852 1.75605 128.756 1.94805C128.756 2.14005 128.66 2.23606 128.564 2.33206C128.564 2.23606 128.468 2.14006 128.468 2.04406C128.468 1.85206 128.276 1.66005 128.084 1.66005H121.844C121.364 1.75605 120.788 1.94806 120.308 1.75606C119.732 1.56406 119.348 1.94805 118.772 1.94805C117.62 1.85205 116.372 1.94805 115.22 1.94805C114.644 1.94805 114.164 1.94806 113.588 2.04406C113.012 2.23606 112.244 2.33205 111.572 2.14005C110.516 1.94805 109.46 2.04405 108.404 2.23606H106.676C106.004 2.23606 105.332 2.23606 104.66 2.33206C103.988 2.33206 103.412 2.14006 102.74 2.33206C102.068 2.71606 101.492 2.14006 100.82 2.33206H100.052C99.38 2.62006 98.804 2.52406 98.132 2.52406C97.364 2.52406 96.596 2.52405 95.828 2.62005C95.444 2.62005 95.156 2.71605 94.772 2.62005C94.292 2.62005 93.716 2.62006 93.236 2.71605C92.66 2.81206 92.084 2.81206 91.508 2.81206C91.028 2.81206 90.548 2.90805 89.972 3.10005C89.492 2.90805 88.916 2.81205 88.34 2.90805C87.764 2.90805 87.188 2.81205 86.612 3.10005C86.516 3.19605 86.228 3.10005 86.036 3.10005C85.844 3.00405 85.652 2.90806 85.46 3.00406C84.788 3.19606 84.02 3.10005 83.348 3.19605H82.1H80.852C80.372 3.19605 79.988 3.38806 79.604 3.29206C79.124 3.19606 78.74 3.48405 78.356 3.38805C77.972 3.29205 77.588 3.48406 77.204 3.48406H75.476C74.9 3.48406 74.324 3.67606 73.748 3.48406C73.076 3.38806 72.5 3.67605 72.02 3.86805C71.54 4.06005 71.156 4.63605 70.772 3.86805C70.676 3.86805 70.58 3.77206 70.484 3.77206C69.428 3.86806 68.372 3.58006 67.412 4.06006C66.74 3.96406 66.068 4.54005 65.492 3.86805H65.012C64.628 4.06005 64.052 3.96405 63.668 4.15605C63.188 4.34805 62.804 4.06006 62.324 4.06006C61.556 4.15606 60.788 4.06006 60.02 4.25206C59.444 4.15606 58.868 4.15605 58.292 4.15605C57.716 4.15605 57.236 4.63606 56.66 4.25206C56.564 4.15606 56.372 4.34805 56.18 4.34805C55.892 4.54005 55.7 4.54006 55.316 4.54006C54.644 4.44406 53.972 4.54006 53.3 4.54006C52.628 4.54006 51.86 4.44406 51.188 4.44406C51.092 4.44406 50.9 4.44406 50.804 4.54006C50.324 4.73206 49.748 4.63605 49.172 4.63605C48.02 4.73205 46.964 4.73206 45.908 4.73206C45.62 4.73206 45.332 4.82805 45.236 5.11605C45.044 5.30805 45.044 5.11606 44.948 5.02006C44.852 4.92406 44.756 4.82805 44.66 4.82805C44.276 4.82805 43.988 4.92406 43.604 5.02006C43.22 5.11606 42.836 5.30805 42.548 4.82805C42.164 5.02005 41.684 5.21206 41.3 5.21206C40.916 5.21206 40.532 5.02006 40.148 5.02006C39.956 5.11606 39.764 5.02005 39.668 5.11605C38.804 5.40405 38.036 5.30805 37.172 5.30805C36.404 5.40405 35.636 5.50006 34.868 5.50006C34.004 5.50006 33.236 5.50005 32.468 5.59605C32.084 5.69205 31.796 5.69206 31.508 5.69206C31.22 5.69206 30.836 5.59606 30.548 5.69206C30.164 5.78806 29.876 5.69206 29.588 5.69206C29.108 5.78806 28.724 5.69206 28.34 5.69206C27.956 5.69206 27.476 5.59606 27.092 5.78806C26.228 5.98006 25.46 6.07606 24.596 5.98006C23.924 5.88406 23.156 6.26805 22.484 6.07605C22.388 5.98005 22.196 6.07606 22.196 6.17206C21.812 6.46006 21.524 6.46006 21.044 6.26806C20.66 6.17206 20.18 6.26805 19.7 6.07605C19.412 5.98005 19.124 6.07606 19.028 6.26806C18.932 6.46006 18.74 6.55606 18.644 6.46006C18.26 6.26806 17.972 6.26805 17.684 6.36405C17.3 6.55605 16.916 6.65206 16.532 6.46006C16.34 6.36406 16.244 6.46006 16.052 6.46006C15.38 6.65206 14.708 6.55605 14.036 6.55605C13.556 6.55605 13.076 6.55606 12.596 6.65206C12.212 6.84406 11.732 6.94006 11.252 6.94006C10.868 6.84406 10.484 6.84406 10.1 7.13206C9.62 6.74806 9.14 7.22806 8.756 7.13206C7.988 7.03606 7.412 7.13205 6.836 7.61205C6.548 7.80405 6.356 7.51605 6.164 7.51605C6.164 8.28405 6.26 8.47606 6.836 8.66806ZM2.612 8.95606C3.188 8.76406 3.956 8.76405 4.436 8.28405C4.532 8.18805 4.724 8.18806 4.724 8.38006C4.724 8.76406 4.916 8.76406 5.108 8.66806C5.396 8.47606 5.492 8.18806 5.588 7.90006C5.588 7.51606 5.876 7.61205 6.164 7.51605C6.068 7.51605 5.972 7.32405 5.972 7.32405C5.396 7.13205 5.108 7.61206 4.724 7.70806C4.244 7.80406 3.764 7.32405 3.188 7.61205L2.804 7.90006C2.612 7.99606 2.516 8.18805 2.324 8.09205C1.748 7.80405 1.268 8.38005 0.788 7.99605C0.595999 7.90005 0.5 8.09205 0.5 8.28405L0.595999 8.66806C0.692 8.66806 0.884 8.57205 0.884 8.57205C1.364 9.14805 1.94 9.14806 2.612 8.95606ZM60.788 15.0041C61.556 15.1961 62.324 14.8121 62.996 14.5241C63.188 14.1401 63.284 14.3321 63.476 14.5241C64.052 14.4281 64.532 14.524 65.012 14.6201C65.588 14.8121 66.164 14.7161 66.74 14.6201C67.124 14.6201 67.508 14.2361 67.892 14.2361C68.276 14.2361 68.756 14.524 69.236 14.6201C69.428 14.7161 69.62 14.6201 69.812 14.6201C70.1 14.6201 70.388 14.6201 70.484 14.4281C70.868 13.9481 71.06 14.6201 71.252 14.5241C71.444 14.5241 71.54 14.5241 71.732 14.4281C72.02 14.3321 72.308 14.2361 72.404 13.8521C72.5 13.6601 72.596 13.5641 72.884 13.6601C73.268 13.7561 73.556 13.7561 74.036 14.0441C74.324 14.2361 74.708 14.1401 75.092 14.1401C75.572 14.0441 75.38 13.7561 75.38 13.4681C75.38 13.4681 75.38 13.2761 75.476 13.2761C75.572 13.2761 75.764 13.2761 75.764 13.3721C75.86 13.8521 76.148 14.0441 76.724 14.0441H79.988H81.62C82.196 14.0441 82.772 14.1401 83.348 13.9481C83.828 13.8521 84.308 13.9481 84.788 13.8521H86.132C86.612 13.7561 87.092 13.8521 87.572 13.5641C87.764 13.4681 87.956 13.5641 88.148 13.6601C88.532 13.8521 88.916 13.5641 89.3 13.6601C89.684 13.0841 90.164 13.3721 90.548 13.4681C90.836 13.5641 91.124 13.7561 91.316 13.6601C92.18 13.5641 92.948 13.7561 93.812 13.7561C94.1 13.7561 94.388 13.7561 94.676 13.6601C95.348 13.4681 95.924 13.4681 96.596 13.4681C96.98 13.4681 97.556 13.4681 97.94 13.5641C98.42 13.7561 98.804 13.3721 99.284 13.4681C99.86 13.4681 100.34 13.4681 100.82 13.5641H101.3C102.548 13.3721 103.796 13.4681 105.044 13.4681H106.58C107.156 13.3721 107.828 13.4681 108.308 13.2761C108.884 13.1801 109.364 13.5641 109.844 13.3721C110.132 13.1801 110.42 13.3721 110.708 13.4681C111.092 13.4681 111.38 13.1801 111.764 13.3721C111.956 13.3721 112.052 13.2761 112.244 13.3721C113.108 13.4681 113.972 13.3721 114.836 13.2761C115.316 13.2761 115.796 13.1801 116.276 13.2761C116.564 13.3721 116.948 13.4681 117.332 13.2761C118.292 13.4681 119.252 13.0841 120.212 13.3721C120.404 13.4681 120.692 13.3721 120.98 13.2761C121.556 13.0841 122.036 13.0841 122.612 13.2761C122.708 13.3721 122.9 13.3721 123.092 13.2761C123.764 13.0841 124.532 13.0841 125.204 13.3721C125.396 13.3721 125.684 13.3721 125.972 13.2761C126.356 13.1801 126.74 12.9881 127.124 12.9881C127.604 13.0841 128.084 13.2761 128.468 13.2761C128.756 13.3721 129.044 13.3721 129.332 13.3721C130.484 13.1801 131.636 13.3721 132.788 13.0841C132.98 13.0841 133.172 13.1801 133.364 13.1801C134.036 13.1801 134.708 13.1801 135.284 13.2761C135.956 13.4681 136.436 13.0841 137.108 13.1801H138.356C138.548 13.1801 138.836 13.1801 139.124 13.0841C139.22 13.0841 139.316 12.9881 139.412 12.7961C139.604 12.6041 139.7 12.7 139.7 12.892C139.892 13.0841 140.084 13.1801 140.276 13.0841C140.948 12.8921 141.524 13.1801 142.196 13.2761C142.484 13.2761 142.772 13.4681 142.964 13.3721C143.54 13.2761 144.116 13.2761 144.692 13.3721C145.076 13.4681 145.556 13.4681 146.036 13.3721C147.092 13.1801 148.052 13.0841 149.108 13.2761C149.204 13.2761 149.3 13.3721 149.396 13.2761C150.164 13.0841 150.836 13.1801 151.604 13.1801C152.084 13.1801 152.564 13.0841 152.948 12.9881C153.428 12.9881 153.908 13.1801 154.388 13.1801C154.772 13.1801 155.156 13.0841 155.54 12.892C155.924 12.7961 156.212 12.7961 156.596 12.892C157.46 13.276 158.324 13.4681 159.188 13.1801C159.38 13.0841 159.668 13.1801 159.956 13.1801C160.82 13.0841 161.588 13.0841 162.452 13.0841C162.548 12.9881 162.74 12.8921 162.836 12.9881C163.22 13.2761 163.7 13.1801 164.084 12.9881C164.468 12.8921 164.756 12.7961 165.14 12.9881C165.332 13.0841 165.62 13.1801 165.908 13.1801C167.348 12.9881 168.788 13.3721 170.228 12.9881C170.324 12.8921 170.516 12.9881 170.708 12.9881C170.996 12.9881 171.284 13.0841 171.572 13.0841C172.052 13.0841 172.532 12.9881 173.012 12.9881C173.492 12.9881 173.876 13.0841 174.356 13.0841C174.74 13.1801 175.124 12.9881 175.412 13.0841C176.18 13.1801 176.948 13.0841 177.62 13.0841C178.292 13.0841 178.964 13.1801 179.636 12.9881C180.308 12.7961 180.98 13.2761 181.652 13.0841H182.228C182.9 12.8921 183.572 13.1801 184.244 13.0841C184.916 12.9881 185.684 12.9881 186.356 12.9881C186.836 13.0841 187.22 12.9881 187.604 12.9881C188.66 13.1801 189.716 12.5081 190.772 13.0841H191.156C191.348 12.9881 191.54 12.7961 191.828 12.892C192.116 13.0841 192.404 13.0841 192.692 12.7961C192.884 12.6041 192.98 13.0841 193.268 12.9881C193.844 12.8921 194.42 13.0841 194.996 12.892C195.188 12.7961 195.476 12.7961 195.764 12.892C196.82 13.0841 197.876 12.892 198.932 12.892C199.412 12.7961 199.892 12.7961 200.372 12.7961C201.044 12.7961 201.812 12.7961 202.58 12.892C203.348 12.9881 204.116 12.7961 204.884 12.7961C205.652 12.8921 206.516 12.8921 207.38 12.7961C207.956 12.7961 208.532 12.4121 209.108 12.7961C210.644 12.7001 212.084 13.0841 213.62 12.892C214.004 12.7961 214.484 12.7961 214.868 12.9881C215.06 13.0841 215.252 12.8921 215.444 12.7961C215.444 12.7961 215.54 12.7961 215.54 12.7001L215.444 12.6041L214.964 12.4121C214.964 12.3161 214.868 12.2201 214.964 12.1241C214.964 12.0281 215.06 11.9321 215.156 11.9321C215.444 11.8361 215.636 11.9321 215.828 12.1241C216.02 12.3161 216.116 12.5081 216.212 12.7001C216.308 12.7961 216.5 12.7961 216.596 12.6041C216.596 12.5081 216.692 12.4121 216.692 12.3161C216.788 12.1241 216.788 11.9321 217.076 12.2201C217.268 12.5081 217.748 12.3161 217.748 12.7961C217.748 12.9881 217.844 12.9881 217.94 12.892C218.132 12.508 218.42 12.5081 218.9 12.7001C220.148 13.0841 221.396 13.2761 222.644 12.9881C222.836 12.8921 222.932 12.9881 223.124 13.0841C223.412 13.0841 223.604 13.0841 223.892 13.1801C224.372 13.1801 224.852 12.8921 225.428 13.0841C225.908 13.2761 226.388 13.1801 226.964 13.2761C227.06 13.2761 227.252 13.3721 227.444 13.2761C228.02 12.9881 228.788 13.1801 229.46 13.1801C229.748 13.0841 230.036 13.2761 230.324 13.1801C230.804 12.8921 231.188 12.9881 231.668 13.2761C232.052 13.4681 232.436 13.2761 232.82 13.0841C233.012 12.8921 233.012 12.6041 233.012 12.3161C232.916 12.1241 232.82 11.9321 232.532 11.9321C231.668 12.0281 230.804 11.7401 229.94 11.9321H229.556C228.596 11.5481 227.636 11.7401 226.772 11.6441C226.292 11.6441 225.812 11.6441 225.428 12.0281C225.236 12.2201 225.236 11.9321 225.236 11.7401C225.14 11.6441 225.14 11.4521 224.948 11.4521C224.372 11.7401 223.892 11.8361 223.316 11.4521C222.932 11.6441 222.452 11.2601 221.972 11.6441C221.684 11.8361 221.492 11.7401 221.204 11.4521C220.916 11.0681 220.34 11.2601 219.86 11.2601C218.996 11.4521 218.132 11.3561 217.268 11.1641C217.076 11.0681 216.884 11.0681 216.692 11.0681C216.404 10.9721 216.212 11.1641 216.02 11.3561C215.924 11.5481 215.636 11.6441 215.54 11.4521C215.156 11.0681 214.676 11.0681 214.196 11.0681C211.892 11.0681 209.492 11.0681 207.188 10.9721C206.804 10.9721 206.42 11.1641 206.132 11.1641C204.692 10.8761 203.252 10.9721 201.812 10.9721H198.932C197.972 10.9721 197.108 10.8761 196.148 10.9721C195.188 11.0681 194.324 10.8761 193.364 10.9721H191.156C190.388 10.9721 189.716 10.7801 188.948 10.9721C188.372 11.0681 187.892 10.8761 187.316 10.8761C186.74 10.7801 186.26 11.0681 185.684 10.9721C185.204 10.8761 184.724 10.8761 184.244 10.9721C183.86 11.0681 183.476 11.0681 183.092 11.0681C181.844 10.9721 180.596 10.9721 179.348 10.9721C178.868 10.9721 178.484 10.9721 178.1 11.1641C177.62 10.9721 177.14 10.9721 176.66 10.9721C175.892 10.9721 175.028 10.8761 174.26 10.9721C173.3 11.1641 172.436 10.7801 171.572 10.9721H171.476H167.54C165.908 11.0681 164.18 10.7801 162.548 11.1641H162.26C161.684 11.0681 161.108 11.0681 160.532 11.0681C159.956 11.0681 159.38 11.2601 158.9 11.0681C158.324 10.9721 157.748 11.1641 157.172 11.0681C156.692 10.9721 156.692 11.4521 156.5 11.7401C155.924 11.0681 155.924 11.0681 155.06 10.9721C154.388 10.9721 153.812 11.1641 153.14 11.0681C152.948 10.9721 152.66 11.0681 152.468 11.1641C152.084 11.4521 151.604 11.5481 151.22 11.2601C150.74 11.4521 150.26 11.4521 149.876 11.3561C149.396 11.1641 149.012 10.9721 148.532 11.2601C148.052 10.9721 147.476 11.3561 146.996 11.1641C146.132 10.9721 145.268 11.2601 144.404 11.2601C144.02 11.2601 143.54 11.6441 143.156 11.0681C142.676 11.0681 142.1 10.9721 141.62 11.0681C140.852 11.3561 140.084 11.2601 139.316 11.0681C139.028 10.9721 138.548 10.8761 138.26 11.1641C137.972 11.5481 137.684 11.6441 137.396 11.2601C137.012 10.9721 136.628 10.9721 136.148 11.0681C135.572 11.0681 134.996 11.1641 134.324 11.2601C133.94 11.2601 133.652 11.3561 133.268 11.1641C132.5 10.8761 131.636 10.9721 130.772 11.0681C129.908 11.2601 129.044 10.9721 128.18 11.2601C128.084 11.3561 127.892 11.2601 127.796 11.1641C127.22 10.9721 126.644 11.0681 126.068 11.0681C125.012 11.0681 123.86 11.1641 122.804 11.1641C122.228 11.1641 121.556 11.0681 120.98 11.1641C120.404 11.2601 119.732 11.2601 119.156 11.2601C118.484 11.1641 117.812 11.2601 117.14 11.2601C116.756 11.2601 116.468 11.4521 116.084 11.4521C115.7 11.4521 115.316 11.3561 114.932 11.1641H114.26C113.78 11.2601 113.3 11.2601 112.724 11.2601C110.996 11.3561 109.268 11.2601 107.54 11.2601C107.156 11.2601 106.676 11.3561 106.196 11.4521C105.62 11.6441 104.948 11.6441 104.372 11.5481C103.796 11.3561 103.22 11.4521 102.644 11.3561C101.972 11.2601 101.3 11.5481 100.628 11.3561C100.436 11.3561 100.244 11.5481 100.052 11.5481C99.764 11.5481 99.38 11.6441 99.092 11.5481C98.516 11.2601 97.94 11.6441 97.46 11.4521C96.404 11.7401 95.348 11.5481 94.292 11.6441C93.716 11.6441 93.236 11.7401 92.66 11.7401C91.892 11.7401 91.22 11.6441 90.452 11.8361C89.78 11.5481 89.108 11.7401 88.34 11.9321H87.572C86.036 11.8361 84.5 12.2201 82.964 12.3161C82.676 12.3161 82.292 12.4121 82.1 12.4121C81.332 12.22 80.564 12.3161 79.892 12.3161C79.22 12.2201 78.644 12.3161 78.548 13.1801C78.548 13.2761 78.356 13.4681 78.26 13.6601C78.164 13.5641 78.068 13.4681 78.068 13.3721C77.972 13.1801 77.396 13.0841 77.876 12.7001C77.972 12.7001 78.068 12.7001 77.876 12.6041H77.78C77.108 12.6041 76.436 12.3161 75.764 12.4121C75.38 12.508 74.996 12.5081 74.516 12.5081C73.46 12.6041 72.5 12.6041 71.444 12.7001C70.292 12.7961 69.236 13.18 68.084 12.892C67.892 12.892 67.7 12.9881 67.508 12.9881C66.644 13.1801 65.876 13.3721 65.012 13.1801C64.724 13.1801 64.436 13.1801 64.34 13.4681C64.052 13.8521 63.764 14.1401 63.284 13.5641C62.708 13.4681 62.036 13.3721 61.46 13.6601C61.172 13.8521 60.98 13.9481 60.692 13.9481C60.404 13.9481 60.212 14.4281 60.308 14.7161C60.308 14.9081 60.596 14.9081 60.788 15.0041ZM49.652 15.8681C50.228 15.8681 50.804 15.6761 51.188 15.3881C51.572 15.1001 51.86 15.1961 52.148 15.4841C52.436 15.6761 52.436 15.1001 52.724 15.1961L53.78 15.3881C54.26 15.4841 54.26 15.3881 54.356 15.0041C54.356 14.8121 54.26 14.524 54.164 14.6201C54.068 14.6201 54.068 14.7161 53.972 14.8121C53.876 14.9081 53.78 15.0041 53.684 15.0041C53.588 15.0041 53.396 15.0041 53.492 14.7161C53.588 14.5241 53.492 14.4281 53.3 14.5241C52.628 14.8121 51.956 14.8121 51.188 14.5241C50.996 14.4281 50.612 14.4281 50.516 14.6201C50.228 15.0041 49.652 15.0041 49.46 15.4841C49.364 15.4841 49.364 15.6761 49.364 15.7721C49.46 15.7721 49.556 15.8681 49.652 15.8681ZM42.644 16.2521H44.756C45.236 16.2521 45.62 15.9641 46.004 15.6761C46.1 15.5801 46.004 15.3881 45.908 15.2921C45.716 15.1001 45.524 15.1 45.332 15.1C44.852 15.1 44.372 15.1961 44.084 15.5801C43.892 15.7721 43.7 15.7721 43.412 15.7721L42.644 16.2521Z" fill="#8FFF00"/>
</svg>
