<svg width="292" height="19" viewBox="0 0 292 19" fill="none" xmlns="http://www.w3.org/2000/svg">
<path d="M7.78275 9.98705C8.53081 10.2008 9.27887 9.88019 9.70633 9.45272C10.1338 9.02526 10.4544 9.02525 10.775 9.23898C11.3093 9.66644 11.6299 9.45272 12.0574 9.34585C12.4848 9.23899 12.4848 9.02525 12.6986 8.81152C12.8054 8.70466 13.126 8.70466 13.126 8.91839C13.126 9.23899 13.126 9.45272 13.4466 9.45272C14.0878 9.45272 14.6222 9.34585 15.2634 9.34585C16.1183 9.34585 16.7595 9.02526 17.5075 8.91839C18.2556 8.81153 19.0037 9.02525 19.7517 9.02525C19.9654 9.13212 20.1792 9.02526 20.3929 8.91839C21.0341 8.5978 21.6753 8.81153 22.2096 8.91839C22.8508 9.02526 23.3851 8.91839 23.9195 8.81152C24.4538 8.70466 25.095 8.91839 25.6293 9.02525C25.8431 9.02525 26.1637 8.81152 26.4843 8.70465C26.9117 8.49092 27.3392 8.49093 27.8735 8.59779C28.6216 8.81153 29.5834 8.81153 30.3314 8.59779C31.0795 8.38406 31.9344 9.23899 32.4687 8.2772C32.5756 8.17033 32.7893 8.17033 32.7893 8.2772C33.5374 8.81152 34.2854 8.59779 35.1404 8.59779C35.8884 8.49093 36.7434 8.49093 37.4914 8.38407C38.2395 8.2772 39.0944 7.9566 39.8425 8.2772C40.5905 7.9566 41.4454 8.2772 42.1935 8.2772C42.5141 8.2772 42.8347 8.27719 43.2622 8.17032C43.4759 8.17032 43.7965 7.9566 44.0102 8.06347C45.7201 8.17033 47.3231 7.74286 48.9261 7.9566C49.2467 7.9566 49.6741 8.06346 49.8878 7.9566C50.4222 7.52913 51.0634 7.9566 51.5977 7.74287C52.132 7.52914 52.7732 7.636 53.3075 7.636C53.8419 7.636 54.4831 7.52914 55.0174 7.74287C55.1243 7.84973 55.2311 7.84973 55.338 7.74287C56.0861 7.3154 56.941 7.42227 57.689 7.20854C58.1165 7.10167 58.4371 7.10167 58.7577 7.20854C59.292 7.52914 59.8264 7.10167 60.3607 7.20854C63.7804 7.42227 67.0932 7.20854 69.9786 6.99481H70.6198C72.009 6.99481 73.3983 6.99481 74.7876 6.88794C75.5356 6.88794 76.1768 6.88795 76.9249 6.78108C77.4592 6.56735 78.1004 6.56735 78.6347 6.78108C79.3828 6.99481 80.2377 6.46048 80.9858 6.78108C80.9858 6.88795 81.1995 6.78108 81.3064 6.67421C81.5201 6.46048 81.7338 6.46048 82.0544 6.46048C82.9093 6.46048 83.8711 6.99481 84.7261 6.13988C84.8329 6.03302 85.0467 6.13988 85.1535 6.13988C86.1153 6.56735 87.184 6.67421 88.1458 6.46048C88.8938 6.24675 89.535 6.24674 90.2831 6.24674C91.138 6.24674 91.9929 6.13988 92.8479 6.24674C93.7028 6.35361 94.5577 6.03301 95.4126 6.24674C95.6264 6.24674 96.0538 6.13988 96.2676 6.03301C96.5882 5.81928 96.8019 5.81929 97.1225 5.92615C97.8705 6.13989 98.7255 6.13988 99.4735 6.03301C100.115 5.92615 100.756 5.81928 101.397 5.81928C101.718 5.81928 102.038 5.60555 102.359 5.71241C103 6.03301 103.748 5.81928 104.389 5.81928C105.137 5.92615 105.992 6.03302 106.634 5.81928C107.488 5.71242 108.237 5.81929 109.091 5.92615C110.053 5.92615 111.122 5.39182 112.084 5.71241C114.114 5.49868 116.038 5.49868 118.068 5.49868C118.816 5.49868 119.564 5.60556 120.312 5.39183C120.954 5.28496 121.702 5.28496 122.343 5.28496C123.411 5.28496 124.48 5.28495 125.442 5.17809C126.083 5.17809 126.617 5.17809 127.152 4.75063C127.152 4.75063 127.365 4.64376 127.365 4.75063C127.793 5.39182 128.327 4.96436 128.862 4.96436C129.717 5.17809 130.678 5.17809 131.533 5.17809C132.816 5.17809 133.991 4.75063 135.167 5.07123C135.274 5.07123 135.38 4.96436 135.487 4.96436C136.022 4.96436 136.556 4.8575 137.09 4.8575C138.586 4.8575 140.189 4.96436 141.685 4.5369C142.113 4.43003 142.54 4.53689 142.861 4.64376C143.609 4.85749 144.25 4.85749 144.998 4.64376C145.212 4.64376 145.426 4.64376 145.64 4.75063C146.174 4.85749 146.815 4.64376 147.349 4.75063C148.097 4.85749 148.739 4.21629 149.487 4.64376H152.265H152.586C152.8 4.64376 153.12 4.53689 153.441 4.43003C153.654 4.32316 153.975 4.32316 154.189 4.43003C154.616 4.64376 155.151 4.5369 155.578 4.5369C155.899 4.5369 156.219 4.32316 156.433 4.43003C157.074 4.53689 157.715 4.53689 158.357 4.43003C158.998 4.32316 159.639 4.5369 160.387 4.32317C161.028 4.2163 161.776 4.32317 162.417 4.2163C163.165 4.75063 163.914 4.10943 164.662 4.2163C164.768 4.2163 164.982 4.2163 165.089 4.32317C165.517 4.5369 165.944 4.5369 166.265 4.32317C166.585 4.10944 167.013 4.10943 167.333 4.2163C167.974 4.2163 168.723 4.21629 169.364 4.10943C170.432 4.10943 171.394 4.32317 172.356 4.00257C172.997 4.32317 173.745 4.10943 174.386 4.10943C174.814 4.21629 175.134 4.00257 175.455 3.68197C175.562 3.57511 175.776 3.46824 175.883 3.68197C175.989 4.00257 176.203 4.10943 176.524 4.10943C177.058 4.10943 177.486 4.2163 177.913 4.00257C178.127 3.89571 178.34 3.8957 178.661 3.8957C179.409 4.2163 180.157 4.10944 181.012 4.00257C181.653 4.00257 182.401 4.32316 183.043 3.8957C183.149 3.78883 183.363 3.89571 183.47 4.00257C184.111 4.10944 185.928 4.00257 186.569 3.8957L187.638 3.78883C188.493 3.8957 189.348 3.78883 190.203 3.78883C191.912 3.8957 193.515 3.68197 195.225 4.00257H195.866C196.187 3.89571 196.508 3.78883 196.721 3.8957C197.683 4.00257 198.645 3.8957 199.5 3.8957C199.927 3.78883 200.355 3.89571 200.675 4.00257C200.996 4.10944 201.317 4.10944 201.53 4.00257C203.454 3.68197 205.377 3.78883 207.301 3.8957C207.835 4.2163 208.477 3.78884 209.118 4.00257C209.759 3.46824 210.4 3.8957 211.148 3.8957C211.683 3.8957 212.217 4.10943 212.751 3.78883C212.858 3.68196 213.179 3.68196 213.286 3.78883C214.14 4.21629 215.102 4.10944 215.957 4.00257C217.133 3.68197 218.201 4.2163 219.377 4.00257C220.018 4.2163 220.766 4.10943 221.407 4.10943C223.758 4.10943 226.109 4.21629 228.354 4.10943C229.102 4.10943 229.743 4.43003 230.491 4.43003C231.132 4.43003 231.773 4.10943 232.521 4.43003C233.269 4.64376 233.911 4.2163 234.659 4.32317C235.3 4.43004 235.834 4.43003 236.369 4.43003C236.796 4.53689 237.223 4.53689 237.651 4.43003C238.506 4.2163 239.468 4.75063 240.323 4.32317C240.429 4.2163 240.536 4.32317 240.643 4.32317C241.284 4.64377 241.926 4.5369 242.567 4.5369C243.422 4.5369 244.383 4.32317 245.345 4.5369C246.2 4.75063 247.055 4.64376 248.017 4.5369C248.337 4.5369 248.658 4.53689 248.872 4.64376C249.94 5.07122 251.116 4.75063 252.292 4.75063C252.719 4.75063 253.04 4.43003 253.467 4.64376C253.894 4.96435 254.429 4.5369 254.749 4.8575C255.818 4.8575 256.887 5.49868 258.062 4.96436C258.062 4.85749 258.276 4.96436 258.383 4.96436C259.238 5.39182 260.2 5.17809 261.054 5.28496C261.909 5.28496 262.657 5.1781 263.512 5.39183C263.94 5.49869 264.581 5.60556 265.115 5.07123H265.222C265.543 5.71242 266.291 5.28495 266.718 5.49868C266.932 5.60555 267.253 5.81928 267.573 5.71241C268.108 5.60555 268.642 5.81928 269.283 5.71241C269.924 5.71241 270.459 5.81928 271.1 5.81928C272.169 5.92615 273.237 5.92615 274.413 5.92615C274.84 5.92615 275.268 5.81928 275.588 6.03301C276.336 6.35361 277.084 6.24674 277.832 6.24674C278.153 6.35361 278.474 6.24675 278.794 6.35361C279.542 6.56734 280.183 6.56735 280.931 6.67421L285.42 6.99481C286.275 7.10168 287.13 7.3154 287.878 7.9566C288.092 8.17033 288.305 8.2772 288.519 8.2772C289.267 8.38406 290.015 8.27719 290.656 7.9566C290.87 7.84973 291.084 7.74287 291.084 7.42227C291.404 6.67421 291.191 6.24675 290.443 5.92615L289.694 5.60556L286.809 4.96436C285.634 4.75063 284.458 4.75063 283.389 4.5369C282.534 4.32317 281.68 4.2163 280.825 4.2163L278.26 3.8957C277.298 3.8957 276.443 3.8957 275.481 3.68197C275.054 3.68197 274.626 3.68197 274.199 3.8957C273.772 4.10943 273.558 4.00257 273.237 3.68197C272.917 3.36137 272.275 3.57511 271.741 3.46824C270.993 3.25451 270.352 3.14764 269.604 3.36137C269.497 3.36137 269.283 3.46824 269.176 3.36137C268.321 3.04078 267.253 3.25451 266.291 3.04077C265.115 2.82704 264.047 2.82704 262.871 2.82704C261.696 2.82704 260.413 2.50645 259.238 2.82704C259.131 2.82704 258.917 2.82704 258.703 2.72017C257.955 2.39958 256.994 2.50645 256.139 2.39959C255.284 2.29272 254.322 2.39958 253.467 2.29272C252.505 2.07899 251.65 2.18585 250.795 2.18585H249.834C249.192 2.18585 248.444 2.29272 247.803 1.86526L247.696 1.97212C246.734 2.18585 245.88 1.97212 244.918 2.07899C244.277 2.07899 243.635 2.18586 242.994 1.86526C242.78 1.75839 242.567 1.75839 242.353 1.75839C240.857 1.86525 239.361 1.65153 237.865 1.54466C237.544 1.43779 237.33 1.54465 237.01 1.65152C236.796 1.65152 236.796 1.97213 236.475 1.86526C235.834 1.65153 235.193 1.54466 234.445 1.54466C233.697 1.54466 232.949 1.43779 232.201 1.43779H227.926C227.499 1.43779 227.071 1.22405 226.751 1.33092C226.216 1.54465 225.789 1.11719 225.361 1.22406C224.827 1.22406 224.4 1.33092 223.865 1.33092C223.651 1.43778 223.545 1.43778 223.331 1.33092C222.262 1.01032 221.194 1.11719 220.018 1.11719C215.209 1.01032 210.293 1.01033 205.484 1.01033C204.95 1.01033 204.416 0.903461 203.881 0.903461C203.454 0.796596 202.92 1.01033 202.385 1.01033C201.958 1.1172 201.53 0.903466 200.996 1.01033C200.355 1.1172 199.714 1.1172 199.072 1.01033C198.538 0.903466 198.004 1.11719 197.363 0.903461C196.828 0.68973 196.294 0.903466 195.76 1.01033H195.546C194.691 0.582869 193.836 1.1172 192.981 1.01033C192.447 1.01033 191.912 0.903461 191.485 0.903461C190.951 0.903461 190.416 1.1172 189.882 1.01033C188.386 1.01033 186.89 1.22406 185.394 1.11719C184.966 1.43779 184.325 1.01033 183.897 1.22406C183.363 1.43779 182.936 1.11719 182.401 1.11719H181.546H176.31C175.348 1.11719 174.28 1.11719 173.318 1.22406C172.677 1.33093 172.035 1.33092 171.501 1.33092C170.753 1.43778 170.005 1.33092 169.257 1.33092C168.509 1.33092 167.761 1.33092 167.013 1.43779C166.265 1.54466 165.517 1.33093 164.768 1.75839C164.662 1.75839 164.448 1.65152 164.234 1.65152C164.02 1.54465 163.7 1.43779 163.379 1.54466C162.631 1.54466 161.776 1.43779 161.028 1.65152C160.28 1.97211 159.639 1.22406 158.998 1.54466C158.357 1.86526 157.715 1.97213 157.074 1.86526C156.326 1.86526 155.685 1.65152 154.937 1.75839C154.296 1.97212 153.654 1.65152 152.906 1.75839C152.372 1.86525 151.945 1.75839 151.41 1.75839C150.983 1.75839 150.662 1.86525 150.448 2.18585C150.342 2.39958 150.128 2.29271 150.021 2.18585C149.807 2.07898 149.7 1.86526 149.487 1.86526C148.845 1.97213 148.204 2.29271 147.563 1.97212C146.922 2.18585 146.174 1.97212 145.533 1.97212C144.998 1.97212 144.464 2.18585 143.823 2.18585C143.716 2.18585 143.609 2.29271 143.502 2.50645C143.502 2.72018 143.395 2.82705 143.288 2.93392C143.288 2.82705 143.182 2.72018 143.182 2.61332C143.182 2.39959 142.968 2.18585 142.754 2.18585H135.808C135.274 2.29271 134.632 2.50645 134.098 2.29272C133.457 2.07899 133.029 2.50645 132.388 2.50645C131.106 2.39958 129.717 2.50645 128.434 2.50645C127.793 2.50645 127.259 2.50645 126.617 2.61332C125.976 2.82705 125.121 2.93391 124.373 2.72017C123.198 2.50644 122.022 2.61331 120.847 2.82704H118.923C118.175 2.82704 117.427 2.82705 116.679 2.93392C115.931 2.93392 115.29 2.72018 114.542 2.93392C113.794 3.36138 113.152 2.72018 112.404 2.93392H111.549C110.801 3.25451 110.16 3.14764 109.412 3.14764C108.557 3.14764 107.702 3.14764 106.847 3.2545C106.42 3.2545 106.099 3.36137 105.672 3.2545C105.137 3.2545 104.496 3.25451 103.962 3.36137C103.321 3.46824 102.68 3.46824 102.038 3.46824C101.504 3.46824 100.97 3.5751 100.328 3.78883C99.7941 3.5751 99.1529 3.46824 98.5117 3.5751C97.8705 3.5751 97.2294 3.46823 96.5882 3.78883C96.4813 3.8957 96.1607 3.78883 95.947 3.78883C95.7332 3.68196 95.5195 3.57511 95.3058 3.68197C94.5577 3.8957 93.7028 3.78883 92.9547 3.8957H91.5655H90.1762C89.6419 3.8957 89.2144 4.10944 88.787 4.00257C88.2526 3.89571 87.8252 4.21629 87.3977 4.10943C86.9702 4.00256 86.5428 4.2163 86.1153 4.2163H84.1917C83.5505 4.2163 82.9093 4.43003 82.2682 4.2163C81.5201 4.10943 80.8789 4.43003 80.3446 4.64376C79.8102 4.85749 79.3828 5.49868 78.9553 4.64376C78.8484 4.64376 78.7416 4.5369 78.6347 4.5369C77.4592 4.64376 76.2837 4.32317 75.215 4.8575C74.467 4.75063 73.7189 5.39182 73.0777 4.64376H72.5434C72.1159 4.85749 71.4747 4.75063 71.0473 4.96436C70.5129 5.17809 70.0855 4.8575 69.5511 4.8575C68.6962 4.96436 67.8413 4.8575 66.9864 5.07123C66.3452 4.96436 65.704 4.96436 65.0628 4.96436C64.4216 4.96436 63.8872 5.49869 63.2461 5.07123C63.1392 4.96436 62.9255 5.17809 62.7117 5.17809C62.3911 5.39182 62.1774 5.39183 61.7499 5.39183C61.0019 5.28496 60.2538 5.39183 59.5058 5.39183C58.7577 5.39183 57.9028 5.28496 57.1547 5.28496C57.0478 5.28496 56.8341 5.28496 56.7272 5.39183C56.1929 5.60556 55.5517 5.49868 54.9105 5.49868C53.6281 5.60555 52.4526 5.60556 51.2771 5.60556C50.9565 5.60556 50.6359 5.71242 50.529 6.03301C50.3153 6.24674 50.3153 6.03302 50.2084 5.92615C50.1016 5.81929 49.9947 5.71241 49.8878 5.71241C49.4604 5.71241 49.1398 5.81929 48.7123 5.92615C48.2849 6.03302 47.8574 6.24674 47.5368 5.71241C47.1093 5.92614 46.575 6.13988 46.1475 6.13988C45.7201 6.13988 45.2926 5.92615 44.8652 5.92615C44.6514 6.03302 44.4377 5.92615 44.3308 6.03301C43.369 6.35361 42.5141 6.24674 41.5523 6.24674C40.6974 6.35361 39.8425 6.46048 38.9875 6.46048C38.0257 6.46048 37.1708 6.46047 36.3159 6.56734C35.8884 6.67421 35.5678 6.67421 35.2472 6.67421C34.9266 6.67421 34.4992 6.56735 34.1786 6.67421C33.7511 6.78108 33.4305 6.67421 33.1099 6.67421C32.5756 6.78108 32.1481 6.67421 31.7207 6.67421C31.2932 6.67421 30.7589 6.56735 30.3314 6.78108C29.3696 6.99481 28.5147 7.10168 27.5529 6.99481C26.8048 6.88794 25.9499 7.3154 25.2019 7.10167C25.095 6.9948 24.8813 7.10167 24.8813 7.20854C24.4538 7.52914 24.1332 7.52914 23.5989 7.31541C23.1714 7.20854 22.6371 7.3154 22.1028 7.10167C21.7822 6.9948 21.4616 7.10168 21.3547 7.31541C21.2478 7.52914 21.0341 7.636 20.9272 7.52914C20.4998 7.31541 20.1792 7.3154 19.8586 7.42227C19.4311 7.636 19.0037 7.74287 18.5762 7.52914C18.3625 7.42227 18.2556 7.52914 18.0419 7.52914C17.2938 7.74287 16.5457 7.636 15.7977 7.636C15.2633 7.636 14.729 7.636 14.1947 7.74287C13.7672 7.9566 13.2329 8.06347 12.6986 8.06347C12.2711 7.9566 11.8436 7.9566 11.4162 8.2772C10.8819 7.84973 10.3475 8.38406 9.92007 8.2772C9.06514 8.17033 8.42395 8.27719 7.78275 8.81152C7.46215 9.02525 7.24842 8.70465 7.03469 8.70465C7.03469 9.55958 7.14156 9.77332 7.78275 9.98705ZM3.08066 10.3076C3.72185 10.0939 4.57678 10.0939 5.11111 9.55958C5.21797 9.45271 5.4317 9.45272 5.4317 9.66645C5.4317 10.0939 5.64544 10.0939 5.85917 9.98705C6.17977 9.77332 6.28663 9.45272 6.3935 9.13212C6.3935 8.70466 6.71409 8.81152 7.03469 8.70465C6.92783 8.70465 6.82096 8.49092 6.82096 8.49092C6.17977 8.27719 5.85917 8.81153 5.4317 8.91839C4.89738 9.02526 4.36305 8.49093 3.72185 8.81152L3.29439 9.13212C3.08066 9.23899 2.97379 9.45272 2.76006 9.34585C2.11887 9.02525 1.58454 9.66644 1.05021 9.23898C0.836479 9.13211 0.729614 9.34585 0.729614 9.55958L0.836479 9.98705C0.943345 9.98705 1.15708 9.88018 1.15708 9.88018C1.69141 10.5214 2.3326 10.5214 3.08066 10.3076ZM67.8413 17.0402C68.6962 17.2539 69.5511 16.8265 70.2992 16.5059C70.5129 16.0784 70.6198 16.2921 70.8335 16.5059C71.4747 16.399 72.009 16.5058 72.5434 16.6127C73.1846 16.8264 73.8258 16.7196 74.467 16.6127C74.8944 16.6127 75.3219 16.1853 75.7493 16.1853C76.1768 16.1853 76.7111 16.5058 77.2455 16.6127C77.4592 16.7196 77.6729 16.6127 77.8867 16.6127C78.2073 16.6127 78.5279 16.6127 78.6347 16.399C79.0622 15.8647 79.2759 16.6127 79.4896 16.5059C79.7034 16.5059 79.8102 16.5059 80.024 16.399C80.3446 16.2921 80.6652 16.1853 80.772 15.7578C80.8789 15.5441 80.9858 15.4372 81.3064 15.5441C81.7338 15.6509 82.0544 15.6509 82.5888 15.9715C82.9093 16.1853 83.3368 16.0784 83.7643 16.0784C84.2986 15.9715 84.0849 15.6509 84.0849 15.3303C84.0849 15.3303 84.0849 15.1166 84.1917 15.1166C84.2986 15.1166 84.5123 15.1166 84.5123 15.2235C84.6192 15.7578 84.9398 15.9715 85.581 15.9715H89.2144H91.0311C91.6723 15.9715 92.3135 16.0784 92.9547 15.8647C93.4891 15.7578 94.0234 15.8647 94.5577 15.7578H96.0538C96.5882 15.6509 97.1225 15.7578 97.6568 15.4372C97.8705 15.3303 98.0843 15.4372 98.298 15.5441C98.7255 15.7578 99.1529 15.4372 99.5804 15.5441C100.008 14.9029 100.542 15.2235 100.97 15.3303C101.29 15.4372 101.611 15.6509 101.825 15.5441C102.786 15.4372 103.641 15.6509 104.603 15.6509C104.924 15.6509 105.244 15.6509 105.565 15.5441C106.313 15.3303 106.954 15.3303 107.702 15.3303C108.13 15.3303 108.771 15.3303 109.198 15.4372C109.733 15.6509 110.16 15.2235 110.694 15.3303C111.336 15.3303 111.87 15.3303 112.404 15.4372H112.939C114.328 15.2235 115.717 15.3303 117.106 15.3303H118.816C119.457 15.2235 120.205 15.3303 120.74 15.1166C121.381 15.0097 121.915 15.4372 122.45 15.2235C122.77 15.0097 123.091 15.2235 123.411 15.3303C123.839 15.3303 124.16 15.0097 124.587 15.2235C124.801 15.2235 124.908 15.1166 125.121 15.2235C126.083 15.3303 127.045 15.2235 128.007 15.1166C128.541 15.1166 129.075 15.0097 129.61 15.1166C129.93 15.2235 130.358 15.3303 130.785 15.1166C131.854 15.3303 132.923 14.9029 133.991 15.2235C134.205 15.3303 134.525 15.2235 134.846 15.1166C135.487 14.9029 136.022 14.9029 136.663 15.1166C136.77 15.2235 136.983 15.2235 137.197 15.1166C137.945 14.9029 138.8 14.9029 139.548 15.2235C139.762 15.2235 140.083 15.2235 140.403 15.1166C140.831 15.0097 141.258 14.796 141.685 14.796C142.22 14.9029 142.754 15.1166 143.182 15.1166C143.502 15.2235 143.823 15.2235 144.143 15.2235C145.426 15.0097 146.708 15.2235 147.991 14.9029C148.204 14.9029 148.418 15.0097 148.632 15.0097C149.38 15.0097 150.128 15.0097 150.769 15.1166C151.517 15.3303 152.051 14.9029 152.8 15.0097H154.189C154.402 15.0097 154.723 15.0097 155.044 14.9029C155.151 14.9029 155.257 14.796 155.364 14.5823C155.578 14.3685 155.685 14.4754 155.685 14.6891C155.899 14.9029 156.112 15.0097 156.326 14.9029C157.074 14.6891 157.715 15.0097 158.463 15.1166C158.784 15.1166 159.105 15.3303 159.318 15.2235C159.96 15.1166 160.601 15.1166 161.242 15.2235C161.669 15.3303 162.204 15.3303 162.738 15.2235C163.914 15.0097 164.982 14.9029 166.158 15.1166C166.265 15.1166 166.371 15.2235 166.478 15.1166C167.333 14.9029 168.081 15.0097 168.936 15.0097C169.471 15.0097 170.005 14.9029 170.432 14.796C170.967 14.796 171.501 15.0097 172.035 15.0097C172.463 15.0097 172.89 14.9029 173.318 14.6891C173.745 14.5823 174.066 14.5823 174.493 14.6891C175.455 15.1166 176.417 15.3303 177.379 15.0097C177.592 14.9029 177.913 15.0097 178.234 15.0097C179.195 14.9029 180.05 14.9029 181.012 14.9029C181.119 14.796 181.333 14.6891 181.44 14.796C181.867 15.1166 182.401 15.0097 182.829 14.796C183.256 14.6891 183.577 14.5823 184.004 14.796C184.218 14.9029 184.539 15.0097 184.859 15.0097C186.462 14.796 188.065 15.2235 189.668 14.796C189.775 14.6891 189.989 14.796 190.203 14.796C190.523 14.796 190.844 14.9029 191.164 14.9029C191.699 14.9029 192.233 14.796 192.767 14.796C193.302 14.796 193.729 14.9029 194.263 14.9029C194.691 15.0097 195.118 14.796 195.439 14.9029C196.294 15.0097 197.149 14.9029 197.897 14.9029C198.645 14.9029 199.393 15.0097 200.141 14.796C200.889 14.5823 201.637 15.1166 202.385 14.9029H203.026C203.774 14.6891 204.523 15.0097 205.271 14.9029C206.019 14.796 206.874 14.796 207.622 14.796C208.156 14.9029 208.583 14.796 209.011 14.796C210.186 15.0097 211.362 14.2617 212.537 14.9029H212.965C213.179 14.796 213.392 14.5823 213.713 14.6891C214.034 14.9029 214.354 14.9029 214.675 14.5823C214.888 14.3685 214.995 14.9029 215.316 14.796C215.957 14.6891 216.598 14.9029 217.24 14.6891C217.453 14.5823 217.774 14.5823 218.094 14.6891C219.27 14.9029 220.446 14.6891 221.621 14.6891C222.155 14.5823 222.69 14.5823 223.224 14.5823C223.972 14.5823 224.827 14.5823 225.682 14.6891C226.537 14.796 227.392 14.5823 228.247 14.5823C229.102 14.6891 230.063 14.6891 231.025 14.5823C231.666 14.5823 232.308 14.1548 232.949 14.5823C234.659 14.4754 236.262 14.9029 237.971 14.6891C238.399 14.5823 238.933 14.5823 239.361 14.796C239.574 14.9029 239.788 14.6891 240.002 14.5823C240.002 14.5823 240.109 14.5823 240.109 14.4754L240.002 14.3685L239.468 14.1548C239.468 14.0479 239.361 13.9411 239.468 13.8342C239.468 13.7274 239.574 13.6205 239.681 13.6205C240.002 13.5136 240.216 13.6205 240.429 13.8342C240.643 14.0479 240.75 14.2617 240.857 14.4754C240.964 14.5823 241.177 14.5823 241.284 14.3685C241.284 14.2617 241.391 14.1548 241.391 14.0479C241.498 13.8342 241.498 13.6205 241.819 13.9411C242.032 14.2617 242.567 14.0479 242.567 14.5823C242.567 14.796 242.674 14.796 242.78 14.6891C242.994 14.2617 243.315 14.2617 243.849 14.4754C245.238 14.9029 246.628 15.1166 248.017 14.796C248.231 14.6891 248.337 14.796 248.551 14.9029C248.872 14.9029 249.086 14.9029 249.406 15.0097C249.94 15.0097 250.475 14.6891 251.116 14.9029C251.65 15.1166 252.185 15.0097 252.826 15.1166C252.933 15.1166 253.146 15.2235 253.36 15.1166C254.001 14.796 254.856 15.0097 255.604 15.0097C255.925 14.9029 256.246 15.1166 256.566 15.0097C257.1 14.6891 257.528 14.796 258.062 15.1166C258.49 15.3303 258.917 15.1166 259.345 14.9029C259.558 14.6891 259.558 14.3685 259.558 14.0479C259.451 13.8342 259.345 13.6205 259.024 13.6205C258.062 13.7273 257.1 13.4067 256.139 13.6205H255.711C254.643 13.193 253.574 13.4068 252.612 13.2999C252.078 13.2999 251.543 13.2999 251.116 13.7273C250.902 13.9411 250.902 13.6205 250.902 13.4067C250.795 13.2999 250.795 13.0861 250.582 13.0861C249.94 13.4067 249.406 13.5136 248.765 13.0861C248.337 13.2999 247.803 12.8724 247.269 13.2999C246.948 13.5136 246.734 13.4067 246.414 13.0861C246.093 12.6587 245.452 12.8724 244.918 12.8724C243.956 13.0862 242.994 12.9793 242.032 12.7656C241.819 12.6587 241.605 12.6587 241.391 12.6587C241.071 12.5518 240.857 12.7656 240.643 12.9793C240.536 13.193 240.216 13.2999 240.109 13.0861C239.681 12.6587 239.147 12.6587 238.613 12.6587C236.048 12.6587 233.376 12.6587 230.811 12.5518C230.384 12.5518 229.957 12.7656 229.636 12.7656C228.033 12.445 226.43 12.5518 224.827 12.5518H221.621C220.552 12.5518 219.591 12.445 218.522 12.5518C217.453 12.6587 216.491 12.445 215.423 12.5518H212.965C212.11 12.5518 211.362 12.3381 210.507 12.5518C209.866 12.6587 209.331 12.445 208.69 12.445C208.049 12.3381 207.515 12.6587 206.874 12.5518C206.339 12.445 205.805 12.445 205.271 12.5518C204.843 12.6587 204.416 12.6587 203.988 12.6587C202.599 12.5518 201.21 12.5518 199.82 12.5518C199.286 12.5518 198.859 12.5518 198.431 12.7656C197.897 12.5518 197.363 12.5518 196.828 12.5518C195.973 12.5518 195.011 12.445 194.157 12.5518C193.088 12.7656 192.126 12.3381 191.164 12.5518H191.057H186.676C184.859 12.6587 182.936 12.3381 181.119 12.7656H180.798C180.157 12.6587 179.516 12.6587 178.875 12.6587C178.234 12.6587 177.592 12.8724 177.058 12.6587C176.417 12.5518 175.776 12.7656 175.134 12.6587C174.6 12.5518 174.6 13.0861 174.386 13.4067C173.745 12.6587 173.745 12.6587 172.783 12.5518C172.035 12.5518 171.394 12.7656 170.646 12.6587C170.432 12.5518 170.112 12.6587 169.898 12.7656C169.471 13.0862 168.936 13.193 168.509 12.8724C167.974 13.0862 167.44 13.0862 167.013 12.9793C166.478 12.7656 166.051 12.5518 165.517 12.8724C164.982 12.5518 164.341 12.9793 163.807 12.7656C162.845 12.5518 161.883 12.8724 160.921 12.8724C160.494 12.8724 159.96 13.2999 159.532 12.6587C158.998 12.6587 158.357 12.5518 157.822 12.6587C156.967 12.9793 156.112 12.8724 155.257 12.6587C154.937 12.5518 154.402 12.445 154.082 12.7656C153.761 13.193 153.441 13.2999 153.12 12.8724C152.693 12.5518 152.265 12.5518 151.731 12.6587C151.09 12.6587 150.448 12.7656 149.7 12.8724C149.273 12.8724 148.952 12.9793 148.525 12.7656C147.67 12.445 146.708 12.5518 145.746 12.6587C144.785 12.8724 143.823 12.5518 142.861 12.8724C142.754 12.9793 142.54 12.8724 142.434 12.7656C141.792 12.5518 141.151 12.6587 140.51 12.6587C139.334 12.6587 138.052 12.7656 136.877 12.7656C136.235 12.7656 135.487 12.6587 134.846 12.7656C134.205 12.8724 133.457 12.8724 132.816 12.8724C132.068 12.7656 131.32 12.8724 130.571 12.8724C130.144 12.8724 129.823 13.0861 129.396 13.0861C128.968 13.0861 128.541 12.9793 128.114 12.7656H127.365C126.831 12.8724 126.297 12.8724 125.656 12.8724C123.732 12.9793 121.808 12.8724 119.885 12.8724C119.457 12.8724 118.923 12.9793 118.389 13.0861C117.748 13.2999 116.999 13.2999 116.358 13.193C115.717 12.9793 115.076 13.0862 114.435 12.9793C113.687 12.8724 112.939 13.193 112.191 12.9793C111.977 12.9793 111.763 13.193 111.549 13.193C111.229 13.193 110.801 13.2999 110.481 13.193C109.84 12.8724 109.198 13.2999 108.664 13.0861C107.488 13.4067 106.313 13.193 105.137 13.2999C104.496 13.2999 103.962 13.4067 103.321 13.4067C102.466 13.4067 101.718 13.2999 100.863 13.5136C100.115 13.193 99.3667 13.4067 98.5117 13.6205H97.6568C95.947 13.5136 94.2371 13.9411 92.5273 14.0479C92.2067 14.0479 91.7792 14.1548 91.5655 14.1548C90.7105 13.9411 89.8556 14.0479 89.1076 14.0479C88.3595 13.9411 87.7183 14.0479 87.6114 15.0097C87.6114 15.1166 87.3977 15.3303 87.2908 15.5441C87.184 15.4372 87.0771 15.3303 87.0771 15.2235C86.9702 15.0097 86.3291 14.9029 86.8634 14.4754C86.9702 14.4754 87.0771 14.4754 86.8634 14.3685H86.7565C86.0085 14.3685 85.2604 14.0479 84.5123 14.1548C84.0849 14.2617 83.6574 14.2617 83.1231 14.2617C81.9476 14.3685 80.8789 14.3685 79.7034 14.4754C78.421 14.5823 77.2455 15.0097 75.9631 14.6891C75.7493 14.6891 75.5356 14.796 75.3219 14.796C74.3601 15.0097 73.5052 15.2235 72.5434 15.0097C72.2228 15.0097 71.9022 15.0097 71.7953 15.3303C71.4747 15.7578 71.1541 16.0784 70.6198 15.4372C69.9786 15.3303 69.2305 15.2235 68.5893 15.5441C68.2687 15.7578 68.055 15.8647 67.7344 15.8647C67.4138 15.8647 67.2001 16.399 67.307 16.7196C67.307 16.9333 67.6276 16.9333 67.8413 17.0402ZM55.4449 18.002C56.0861 18.002 56.7272 17.7882 57.1547 17.4676C57.5822 17.147 57.9028 17.2539 58.2234 17.5745C58.544 17.7882 58.544 17.147 58.8646 17.2539L60.0401 17.4676C60.5744 17.5745 60.5744 17.4676 60.6813 17.0402C60.6813 16.8265 60.5744 16.5058 60.4675 16.6127C60.3607 16.6127 60.3607 16.7196 60.2538 16.8265C60.147 16.9333 60.0401 17.0402 59.9332 17.0402C59.8264 17.0402 59.6126 17.0402 59.7195 16.7196C59.8264 16.5059 59.7195 16.399 59.5058 16.5059C58.7577 16.8265 58.0096 16.8265 57.1547 16.5059C56.941 16.399 56.5135 16.399 56.4067 16.6127C56.0861 17.0402 55.4449 17.0402 55.2311 17.5745C55.1243 17.5745 55.1243 17.7882 55.1243 17.8951C55.2311 17.8951 55.338 18.002 55.4449 18.002ZM47.6437 18.4294H49.9947C50.529 18.4294 50.9565 18.1088 51.384 17.7882C51.4908 17.6814 51.384 17.4676 51.2771 17.3608C51.0634 17.1471 50.8496 17.147 50.6359 17.147C50.1016 17.147 49.5672 17.2539 49.2467 17.6814C49.0329 17.8951 48.8192 17.8951 48.4986 17.8951L47.6437 18.4294Z" fill="black"/>
</svg>
