<svg width="26" height="26" viewBox="0 0 26 26" fill="none" xmlns="http://www.w3.org/2000/svg">
<g clip-path="url(#clip0_373_9998)">
<path d="M25.5545 13.1903C25.5545 12.3338 25.485 11.4726 25.3369 10.63H13.4521V15.482H20.258C19.9755 17.0469 19.0681 18.4312 17.7394 19.3109V22.4591H21.7997C24.184 20.2646 25.5545 17.0238 25.5545 13.1903Z" fill="#4285F4"/>
<path d="M13.4521 25.5009C16.8503 25.5009 19.7162 24.3851 21.8042 22.4591L17.7439 19.3109C16.6142 20.0794 15.1558 20.5146 13.4567 20.5146C10.1695 20.5146 7.38239 18.297 6.38235 15.3154H2.19238V18.5609C4.33135 22.8156 8.68799 25.5009 13.4521 25.5009Z" fill="#34A853"/>
<path d="M6.37772 15.3153C5.84992 13.7505 5.84992 12.056 6.37772 10.4911V7.24561H2.19238C0.405275 10.8059 0.405275 15.0005 2.19238 18.5608L6.37772 15.3153Z" fill="#FBBC04"/>
<path d="M13.4521 5.28719C15.2484 5.25941 16.9846 5.93536 18.2856 7.17615L21.8829 3.5788C19.6051 1.43983 16.5818 0.26386 13.4521 0.300898C8.68799 0.300898 4.33135 2.98618 2.19238 7.2456L6.37772 10.4911C7.37313 7.50487 10.1649 5.28719 13.4521 5.28719Z" fill="#EA4335"/>
</g>
<defs>
<clipPath id="clip0_373_9998">
<rect width="25.2" height="25.2" fill="white" transform="translate(0.600098 0.300049)"/>
</clipPath>
</defs>
</svg>
