<svg width="23" height="21" viewBox="0 0 23 21" fill="none" xmlns="http://www.w3.org/2000/svg">
<path d="M0.218018 1.47749C0.218018 0.78713 0.777662 0.227486 1.46802 0.227486H21.468C22.1584 0.227486 22.718 0.78713 22.718 1.47749C22.718 2.16784 22.1584 2.72749 21.468 2.72749H1.46802C0.777662 2.72749 0.218018 2.16784 0.218018 1.47749ZM7.71802 10.2275C7.71802 9.53713 8.27766 8.97749 8.96802 8.97749H21.468C22.1584 8.97749 22.718 9.53713 22.718 10.2275C22.718 10.9178 22.1584 11.4775 21.468 11.4775H8.96802C8.27766 11.4775 7.71802 10.9178 7.71802 10.2275ZM0.218018 18.9775C0.218018 18.2871 0.777662 17.7275 1.46802 17.7275H21.468C22.1584 17.7275 22.718 18.2871 22.718 18.9775C22.718 19.6678 22.1584 20.2275 21.468 20.2275H1.46802C0.777662 20.2275 0.218018 19.6678 0.218018 18.9775Z" fill="#8FFF00"/>
</svg>
